<svg width="10" height="10" viewBox="0 0 10 10" fill="none" xmlns="http://www.w3.org/2000/svg">
<path d="M4.24209 5.75876H0.956592C0.743781 5.75876 0.564187 5.68557 0.417809 5.53919C0.271431 5.39281 0.198242 5.21323 0.198242 5.00043C0.198242 4.78763 0.271431 4.60804 0.417809 4.46166C0.564187 4.31528 0.743781 4.24209 0.956592 4.24209H4.24209V0.956592C4.24209 0.743781 4.31528 0.564187 4.46166 0.417809C4.60804 0.271431 4.78763 0.198242 5.00043 0.198242C5.21323 0.198242 5.39281 0.271431 5.53919 0.417809C5.68557 0.564187 5.75876 0.743781 5.75876 0.956592V4.24209H9.04426C9.25707 4.24209 9.43666 4.31528 9.58304 4.46166C9.72942 4.60804 9.80261 4.78763 9.80261 5.00043C9.80261 5.21323 9.72942 5.39281 9.58304 5.53919C9.43666 5.68557 9.25707 5.75876 9.04426 5.75876H5.75876V9.04426C5.75876 9.25707 5.68557 9.43667 5.53919 9.58304C5.39281 9.72942 5.21323 9.80261 5.00043 9.80261C4.78763 9.80261 4.60804 9.72942 4.46166 9.58304C4.31528 9.43667 4.24209 9.25707 4.24209 9.04426V5.75876Z" fill="#5534DA"/>
</svg>
