<svg width="20" height="20" viewBox="0 0 20 20" fill="none" xmlns="http://www.w3.org/2000/svg">
<g id="calendar_today_FILL0_wght300_GRAD0_opsz24 11">
<path id="Vector" d="M4.42292 18.657C4.00198 18.657 3.64567 18.5111 3.354 18.2195C3.06234 17.9278 2.9165 17.5715 2.9165 17.1506V5.99677C2.9165 5.57582 3.06234 5.21952 3.354 4.92785C3.64567 4.63618 4.00198 4.49035 4.42292 4.49035H5.57677V3.36854C5.57677 3.18586 5.63794 3.03335 5.76027 2.91102C5.88259 2.7887 6.0351 2.72754 6.2178 2.72754C6.40048 2.72754 6.55298 2.7887 6.67532 2.91102C6.79764 3.03335 6.8588 3.18586 6.8588 3.36854V4.49035H13.1729V3.35252C13.1729 3.17517 13.2327 3.02667 13.3524 2.90702C13.472 2.78737 13.6205 2.72754 13.7979 2.72754C13.9752 2.72754 14.1237 2.78737 14.2434 2.90702C14.363 3.02667 14.4229 3.17517 14.4229 3.35252V4.49035H15.5767C15.9977 4.49035 16.354 4.63618 16.6456 4.92785C16.9373 5.21952 17.0831 5.57582 17.0831 5.99677V17.1506C17.0831 17.5715 16.9373 17.9278 16.6456 18.2195C16.354 18.5111 15.9977 18.657 15.5767 18.657H4.42292ZM4.42292 17.407H15.5767C15.6408 17.407 15.6996 17.3803 15.753 17.3269C15.8064 17.2734 15.8332 17.2147 15.8332 17.1506V9.3301H4.16648V17.1506C4.16648 17.2147 4.19319 17.2734 4.24661 17.3269C4.30004 17.3803 4.35881 17.407 4.42292 17.407ZM4.16648 8.08012H15.8332V5.99677C15.8332 5.93266 15.8064 5.87389 15.753 5.82046C15.6996 5.76704 15.6408 5.74033 15.5767 5.74033H4.42292C4.35881 5.74033 4.30004 5.76704 4.24661 5.82046C4.19319 5.87389 4.16648 5.93266 4.16648 5.99677V8.08012Z" fill="#9FA6B2"/>
</g>
</svg>
