<svg xmlns="http://www.w3.org/2000/svg" width="126" height="36" viewBox="0 0 126 36" fill="none">
  <path d="M8.77445 28.1516V8.38919H0.916992V3.79652H22.3145V8.38919H14.4571V28.1516H8.77445Z" fill="white"/>
  <path d="M34.8055 28.1516V24.4983L34.4548 23.6981V17.157C34.4548 15.9973 34.0923 15.0926 33.3673 14.4432C32.6658 13.7937 31.5784 13.469 30.1051 13.469C29.0995 13.469 28.1057 13.6313 27.1235 13.9561C26.1647 14.2576 25.3462 14.6751 24.668 15.2086L22.7036 11.4162C23.7326 10.6971 24.972 10.1404 26.4219 9.74612C27.8718 9.3518 29.3451 9.15464 30.8417 9.15464C33.7181 9.15464 35.9514 9.8273 37.5416 11.1726C39.1318 12.518 39.9269 14.6171 39.9269 17.4702V28.1516H34.8055ZM29.0528 28.4299C27.5795 28.4299 26.3167 28.1864 25.2643 27.6993C24.212 27.189 23.4052 26.5047 22.844 25.6465C22.2827 24.7883 22.0021 23.8257 22.0021 22.7587C22.0021 21.6453 22.271 20.6711 22.8089 19.8361C23.3701 19.0011 24.2471 18.3516 25.4397 17.8877C26.6324 17.4006 28.1875 17.157 30.1051 17.157H35.1212V20.3232H30.7014C29.4152 20.3232 28.5266 20.5319 28.0355 20.9495C27.5678 21.367 27.3339 21.8889 27.3339 22.5151C27.3339 23.211 27.6029 23.7677 28.1407 24.1852C28.702 24.5795 29.462 24.7767 30.4208 24.7767C31.3328 24.7767 32.1513 24.5679 32.8763 24.1504C33.6012 23.7097 34.1274 23.0718 34.4548 22.2368L35.2966 24.7419C34.8991 25.948 34.1741 26.8643 33.1218 27.4905C32.0695 28.1168 30.7131 28.4299 29.0528 28.4299Z" fill="white"/>
  <path d="M50.4314 28.4299C48.8178 28.4299 47.2627 28.2444 45.766 27.8733C44.2927 27.4789 43.1235 26.9918 42.2582 26.412L44.0823 22.5151C44.9475 23.0486 45.9648 23.4893 47.134 23.8373C48.3267 24.162 49.4959 24.3244 50.6418 24.3244C51.9046 24.3244 52.7933 24.1736 53.3077 23.8721C53.8456 23.5705 54.1145 23.153 54.1145 22.6195C54.1145 22.1788 53.9041 21.8541 53.4831 21.6453C53.0856 21.4134 52.5477 21.2394 51.8696 21.1234C51.1914 21.0074 50.4431 20.8915 49.6246 20.7755C48.8295 20.6595 48.0227 20.5087 47.2042 20.3232C46.3857 20.1144 45.6374 19.8129 44.9592 19.4186C44.281 19.0242 43.7315 18.4908 43.3105 17.8181C42.913 17.1454 42.7142 16.2756 42.7142 15.2086C42.7142 14.0257 43.0533 12.9819 43.7315 12.0772C44.433 11.1726 45.4386 10.4652 46.7482 9.95488C48.0578 9.42138 49.6246 9.15464 51.4486 9.15464C52.7348 9.15464 54.0444 9.29381 55.3773 9.57215C56.7103 9.8505 57.8211 10.2564 58.7098 10.7899L56.8857 14.6519C55.9737 14.1184 55.05 13.7589 54.1145 13.5733C53.2025 13.3646 52.3139 13.2602 51.4486 13.2602C50.2326 13.2602 49.3439 13.4226 48.7827 13.7473C48.2215 14.072 47.9408 14.4896 47.9408 14.9999C47.9408 15.4638 48.1396 15.8117 48.5372 16.0436C48.9581 16.2756 49.5076 16.4612 50.1858 16.6003C50.864 16.7395 51.6006 16.8671 52.3957 16.9831C53.2142 17.0758 54.0327 17.2266 54.8512 17.4354C55.6697 17.6441 56.4063 17.9457 57.0611 18.34C57.7393 18.7111 58.2888 19.233 58.7098 19.9057C59.1307 20.5551 59.3412 21.4134 59.3412 22.4803C59.3412 23.6401 58.9904 24.6723 58.2888 25.5769C57.5873 26.4583 56.57 27.1542 55.237 27.6645C53.9275 28.1748 52.3256 28.4299 50.4314 28.4299Z" fill="white"/>
  <path d="M66.4452 24.3244L66.5855 17.7137L75.3901 9.43298H81.9146L73.4608 17.9573L70.6195 20.2536L66.4452 24.3244ZM61.9202 28.1516V2.33522H67.3923V28.1516H61.9202ZM75.9864 28.1516L69.6022 20.2884L73.0399 16.0784L82.6162 28.1516H75.9864Z" fill="white"/>
  <path d="M84.2799 28.1516V9.43298H89.752V28.1516H84.2799ZM87.0159 6.82351C86.0104 6.82351 85.1919 6.53357 84.5605 5.95369C83.9291 5.3738 83.6134 4.65475 83.6134 3.79652C83.6134 2.93829 83.9291 2.21924 84.5605 1.63936C85.1919 1.05947 86.0104 0.769531 87.0159 0.769531C88.0215 0.769531 88.84 1.04788 89.4714 1.60456C90.1028 2.13806 90.4185 2.83392 90.4185 3.69214C90.4185 4.59676 90.1028 5.35061 89.4714 5.95369C88.8634 6.53357 88.0449 6.82351 87.0159 6.82351Z" fill="white"/>
  <path d="M94.6999 28.1516V9.01547C94.6999 6.90469 95.3313 5.22303 96.5941 3.97049C97.8569 2.69474 99.6576 2.05687 101.996 2.05687C102.791 2.05687 103.551 2.13806 104.276 2.30042C105.025 2.46279 105.656 2.71794 106.17 3.06587L104.732 6.99747C104.428 6.78872 104.089 6.62635 103.715 6.51037C103.341 6.3944 102.943 6.33641 102.522 6.33641C101.727 6.33641 101.107 6.56836 100.663 7.03227C100.242 7.47298 100.032 8.14564 100.032 9.05026V10.7899L100.172 13.121V28.1516H94.6999ZM91.7884 14.0257V9.8505H104.873V14.0257H91.7884Z" fill="white"/>
  <path d="M109.529 35.1798C108.547 35.1798 107.577 35.029 106.618 34.7275C105.659 34.4259 104.876 34.0084 104.268 33.4749L106.267 29.6129C106.688 29.984 107.167 30.274 107.705 30.4827C108.267 30.6915 108.816 30.7959 109.354 30.7959C110.126 30.7959 110.734 30.6103 111.178 30.2392C111.646 29.8913 112.067 29.2998 112.441 28.4647L113.423 26.1684L113.844 25.5769L120.614 9.43298H125.876L117.352 29.2998C116.744 30.8075 116.042 31.9904 115.247 32.8487C114.475 33.7069 113.61 34.31 112.651 34.6579C111.716 35.0058 110.675 35.1798 109.529 35.1798ZM112.757 28.8823L104.338 9.43298H109.985L116.51 25.0898L112.757 28.8823Z" fill="white"/>
</svg>